<?xml version="1.0" encoding="utf-8"?>
<!-- Generator: Adobe Illustrator 23.0.3, SVG Export Plug-In . SVG Version: 6.00 Build 0)  -->
<svg version="1.1" id="Слой_1" xmlns="http://www.w3.org/2000/svg" xmlns:xlink="http://www.w3.org/1999/xlink" x="0px" y="0px"
	 viewBox="0 0 2460 2460" style="enable-background:new 0 0 2460 2460;" xml:space="preserve">
<style type="text/css">
	.st0{fill:#0000FF;}
	.st1{fill:#FF0000;stroke:#8E750C;stroke-miterlimit:10;}
</style>
<g transform="translate(0.000000,3579.000000) scale(0.100000,-0.100000)">
	<path class="st0" d="M12149.6,35390.3c-262-28-537-147-758-328c-78-64-815-794-2237-2216l-2120-2121h415h415l1485,1486
		c817,817,1546,1538,1620,1603c594,514,1408,648,2127,349c206-86,385-198,565-352c86-75,733-715,1623-1605l1480-1481h430h430
		l-2120,2121c-1394,1394-2160,2153-2237,2216c-226,186-489,298-771,329C12344.6,35407.3,12306.6,35407.3,12149.6,35390.3z"/>
	<path class="st0" d="M9929.6,29515.3v-2380h-421c-333,0-420,3-416,13c3,6,43,109,90,227c84,214,85,216,126,455l41,240l-10,242
		l-10,243l-57,227c-56,225-58,231-163,449c-104,214-113,229-253,410c-138,180-154,196-326,344c-173,147-193,161-392,271
		c-207,114-213,117-442,187l-232,71l-227,20c-221,20-288,21-2313,21h-2085v-655v-655h1775c1738,0,1777,0,1865-20
		c179-40,352-145,456-278c27-34,51-67,52-72c3-7-710-10-2072-10h-2076v-655v-655h2075c1390,0,2075-3,2075-10c0-23-112-160-175-213
		c-80-68-210-137-321-168l-79-23l-1787-3l-1788-4v-654v-655h8272h8272l221,21c217,21,224,23,446,90c215,65,234,73,427,176
		c187,100,214,119,383,258c168,138,194,164,330,330c137,167,156,195,257,385c105,196,113,215,176,425c62,208,67,231,86,420
		c25,246,25,272,0,519c-19,189-23,210-86,420c-64,211-72,230-177,428c-100,187-124,224-240,365c-166,204-163,200-360,361
		c-151,123-188,148-370,245c-193,104-212,112-427,177c-221,66-229,68-445,89c-217,21-252,21-2277,21h-2058v-655v-655h1764
		c1758,0,1765,0,1858-21c167-38,327-143,428-281c27-37,50-71,50-73c0-3-922-5-2050-5h-2050v-655v-655h2051c1682,0,2050-2,2046-13
		c-16-41-104-160-154-208c-73-70-194-139-298-170l-80-24l-3267-3l-3268-2v1715v1715h1185h1185v665v665h-2370h-2370V29515.3z"/>
	<path class="st0" d="M21345.6,26573.3l-188-211l695-696c624-624,711-715,843-881c143-181,149-190,249-397l103-211l51-224l51-223
		v-242v-241l-51-224c-51-221-53-225-147-423c-53-110-105-213-116-230c-11-16-82-106-157-200c-126-156-503-536-4541-4571
		c-5036-5034-4566-4581-4937-4761l-213-103l-219-50l-218-50h-235h-234l-222,51l-222,51l-212,102c-377,183,85-263-4968,4793
		l-4397,4398l-159,208l-159,208l-102,247l-101,247l-36,268l-36,268l36,267l35,267l106,255l106,255l165,215c149,193,197,247,480,530
		l314,315v420v420l-926-925c-1076-1075-1117-1121-1239-1373c-64-131-79-173-109-306c-34-146-36-163-36-333c0-169,2-189,35-336
		c31-138,44-175,107-307c56-117,92-175,162-265c71-92,1143-1169,5330-5358c5077-5079,5246-5247,5401-5366c156-120,164-124,334-194
		l174-72l193-26l193-26l193,26l193,25l175,73c166,68,183,78,320,181c138,104,414,379,5378,5341c4339,4337,5252,5254,5343,5368
		c93,115,120,159,179,280c59,122,75,167,105,296c33,145,35,163,35,332c0,168-2,188-35,332c-31,135-43,171-110,306
		c-62,127-91,173-174,275c-69,85-444,466-1248,1269l-1148,1147L21345.6,26573.3z"/>
	<path class="st1" d="M2839.6,24650.3v-595h3545h3545l2-2674l3-2674l489,463c269,256,497,472,506,482c10,10,324,308,699,663l681,645
		v1548v1547h4745h4745v595v595h-9480h-9480V24650.3z"/>
	<path class="st1" d="M13967.6,22496.3l-1635-1529l-6-868c-6-1004-8-7424-1-7409c2,6,55,188,118,405s149,514,191,660
		s107,371,145,500c37,129,102,352,143,495c42,143,191,658,332,1145s272,937,290,1000s67,232,109,375c41,143,210,728,376,1300
		c166,572,330,1139,365,1260s105,362,155,535c89,307,133,458,224,773c25,83,79,271,121,417s162,558,265,915
		c471,1624,449,1549,446,1552C15604.6,24024.3,14867.6,23337.3,13967.6,22496.3z"/>
</g>
</svg>
